<?xml version="1.0" encoding="UTF-8" standalone="no"?>
<svg
   xmlns:dc="http://purl.org/dc/elements/1.1/"
   xmlns:cc="http://creativecommons.org/ns#"
   xmlns:rdf="http://www.w3.org/1999/02/22-rdf-syntax-ns#"
   xmlns:svg="http://www.w3.org/2000/svg"
   xmlns="http://www.w3.org/2000/svg"
   xmlns:sodipodi="http://sodipodi.sourceforge.net/DTD/sodipodi-0.dtd"
   xmlns:inkscape="http://www.inkscape.org/namespaces/inkscape"
   width="48"
   height="48"
   viewBox="0 0 12.7 12.7"
   version="1.1"
   id="svg1932"
   inkscape:version="1.0.1 (3bc2e813f5, 2020-09-07)"
   sodipodi:docname="conceptual.svg">
  <defs
     id="defs1926" />
  <sodipodi:namedview
     id="base"
     pagecolor="#ffffff"
     bordercolor="#666666"
     borderopacity="1.0"
     inkscape:pageopacity="0.0"
     inkscape:pageshadow="2"
     inkscape:zoom="4.6300614"
     inkscape:cx="17.346535"
     inkscape:cy="35.168317"
     inkscape:document-units="mm"
     inkscape:current-layer="layer1"
     inkscape:document-rotation="0"
     showgrid="false"
     units="px"
     inkscape:pagecheckerboard="true"
     inkscape:window-width="1026"
     inkscape:window-height="617"
     inkscape:window-x="243"
     inkscape:window-y="99"
     inkscape:window-maximized="0" />
  <metadata
     id="metadata1929">
    <rdf:RDF>
      <cc:Work
         rdf:about="">
        <dc:format>image/svg+xml</dc:format>
        <dc:type
           rdf:resource="http://purl.org/dc/dcmitype/StillImage" />
        <dc:title></dc:title>
      </cc:Work>
    </rdf:RDF>
  </metadata>
  <g
     inkscape:label="Capa 1"
     inkscape:groupmode="layer"
     id="layer1">
    <path
       inkscape:connector-curvature="0"
       id="path968"
       d="m 7.2839917,2.8597438 c -0.4214194,-0.0084 -0.8734555,-0.00308 -1.1959819,0.018378 -1.2063524,0.080835 -1.2271954,0.094662 -1.237045,0.825887 -0.00673,0.4979639 0.023805,0.6150607 0.1933481,0.7391222 C 5.1362899,4.510425 5.0440291,4.50824 6.8339147,4.485444 7.6101423,4.475564 7.7384568,4.480494 7.9454505,4.528467 8.7113309,4.7058291 9.0976433,5.2362994 9.216239,6.2732566 9.262503,6.6776624 9.267162,8.826584 9.222499,9.1543983 9.1178255,9.9224934 8.8635079,10.39756 8.4480308,10.601576 c -0.4115324,0.202091 -1.1419865,0.262585 -2.2996657,0.190321 -0.7940915,-0.04957 -0.9813004,-0.04303 -1.1201069,0.03874 -0.1511438,0.08904 -0.1803337,0.204651 -0.1819232,0.722332 -0.0014,0.416894 0.00504,0.478897 0.057124,0.567555 0.1102571,0.187572 0.3013621,0.237779 1.1118954,0.292434 0.5101423,0.03442 1.5245335,0.03577 1.9301059,0.0024 1.4309502,-0.117334 2.1802877,-0.554175 2.6838627,-1.564455 0.353292,-0.708769 0.505658,-1.5325477 0.538272,-2.9104163 C 11.194506,6.803865 11.119591,5.8871576 10.944072,5.207524 10.595502,3.8578305 9.7874063,3.160342 8.296092,2.9217844 8.0961909,2.8897901 7.7054221,2.8680216 7.2839991,2.8596542 Z"
       style="fill:#ffffff;stroke-width:0.0292506" />
    <path
       inkscape:connector-curvature="0"
       id="path970"
       d="M 5.7320174,0.33316401 C 4.5624649,0.34359531 3.6769383,0.48186937 3.1156377,0.74378776 2.1363198,1.2007604 1.5937339,2.0526929 1.3737043,3.4792515 1.2985373,3.9666225 1.2669482,5.3847687 1.3176443,5.9911892 1.448312,7.5541596 1.8793362,8.4223609 2.7974932,8.9717697 3.3144723,9.2811237 4.1068129,9.4838299 5.0496678,9.5480727 5.537348,9.5813077 6.8040422,9.5580867 7.4619908,9.5038117 7.8774064,9.4695006 7.9975645,9.449262 8.103989,9.3957932 8.3131149,9.2907107 8.3366875,9.2368719 8.3580376,8.8180683 8.3792555,8.4024427 8.3491622,8.2348747 8.2305664,8.1094756 8.0761681,7.9461745 7.9155372,7.9350707 6.6187854,7.9978925 5.9192377,8.0317816 5.132532,8.0013711 4.7911565,7.9273738 4.1929136,7.7976961 3.8048605,7.4425017 3.6049931,6.8415425 3.4565165,6.3951079 3.4407966,6.2032694 3.4412804,4.8400237 3.4416259,3.6793365 3.4457629,3.5783835 3.5039429,3.3189353 3.5869171,2.9485808 3.6706365,2.7361146 3.8181597,2.5205423 3.9608707,2.3120002 4.2095197,2.1278357 4.4499842,2.0527901 4.9082213,1.9097681 5.716164,1.8734173 7.2873844,1.9247829 7.9817677,1.9474849 8.0401326,1.94544 8.134515,1.8954876 8.3249709,1.7947353 8.3550031,1.6979109 8.3550031,1.1826108 c 0,-0.39148701 -0.00757,-0.46597615 -0.053734,-0.53666528 C 8.1864829,0.47038008 7.9423604,0.418033 6.9947745,0.36547205 6.5433294,0.34042575 6.1218719,0.32967686 5.732022,0.33316959 Z"
       style="fill:#ffffff;stroke-width:0.0292506" />
  </g>
</svg>
